# AST/ASF file generated using VICON BodyLanguage
# -----------------------------------------------
:version 1.10
:name VICON
:units
  mass 1.0
  length 0.45
  angle deg
:documentation
   .ast/.asf automatically generated from VICON data using
   VICON BodyBuilder and BodyLanguage model FoxedUp or BRILLIANT.MOD
:root
   order TX TY TZ RX RY RZ
   axis XYZ
   position 0 0 0  
   orientation 0 0 0 
:bonedata
  begin
     id 1 
     name lhipjoint
     direction 0.645893 -0.654526 0.392961 
     length 2.38111 
     axis 0 0 0  XYZ
  end
  begin
     id 2 
     name lfemur
     direction 0.34202 -0.939693 0  
     length 6.6822  
     axis 0 0 20  XYZ
    dof rx ry rz
    limits (-160.0 20.0)
           (-70.0 70.0)
           (-60.0 70.0)
  end
  begin
     id 3 
     name ltibia
     direction 0.34202 -0.939693 0   
     length 6.93904   
     axis 0 0 20   XYZ
    dof rx
    limits (-10.0 170.0)
  end
  begin
     id 4 
     name lfoot
     direction 0.0694967 -0.190941 0.979138   
     length 2.13616   
     axis -90 7.62852e-016 20   XYZ
    dof rx rz
    limits (-45.0 90.0)
           (-70.0 20.0)
  end
  begin
     id 5 
     name ltoes
     direction 1.535e-011 -4.2202e-011 1   
     length 1.07536   
     axis -90 7.62852e-016 20   XYZ
    dof rx
    limits (-90.0 20.0)
  end
  begin
     id 6 
     name rhipjoint
     direction -0.700219 -0.612087 0.367481   
     length 2.54621  
     axis 0 0 0  XYZ 
  end
  begin
     id 7 
     name rfemur
     direction -0.34202 -0.939693 0   
     length 6.55353   
     axis 0 0 -20   XYZ
    dof rx ry rz
    limits (-160.0 20.0)
           (-70.0 70.0)
           (-70.0 60.0)
  end
  begin
     id 8 
     name rtibia
     direction -0.34202 -0.939693 0   
     length 6.8736   
     axis 0 0 -20   XYZ
    dof rx
    limits (-10.0 170.0)
 end
 begin
     id 9 
     name rfoot
     direction -0.0679995 -0.186827 0.980037   
     length 2.1218  
     axis -90 -7.62852e-016 -20   XYZ
    dof rx rz
    limits (-45.0 90.0)
           (-20.0 70.0)
  end
  begin
     id 10 
     name rtoes
     direction -1.53589e-011 -4.21772e-011 1   
     length 1.06864   
     axis -90 -7.62852e-016 -20   XYZ
    dof rx
    limits (-90.0 20.0)
  end
  begin
     id 11 
     name lowerback
     direction -0.0416607 0.996347 -0.0745409   
     length 2.12205   
     axis 0 0 0   XYZ
    dof rx ry rz
    limits (-20.0 45.0)
           (-30.0 30.0)
           (-30.0 30.0)
  end
  begin
     id 12 
     name upperback
     direction -0.000153993 0.999276 -0.0380568   
     length 2.12759   
     axis 0 0 0   XYZ
    dof rx ry rz
    limits (-20.0 45.0)
           (-30.0 30.0)
           (-30.0 30.0)
  end
  begin
     id 13 
     name thorax
     direction 0.0187671 0.999821 -0.00241421   
     length 2.13704   
     axis 0 0 0   XYZ
    dof rx ry rz
    limits (-20.0 45.0)
           (-30.0 30.0)
           (-30.0 30.0)
  end
  begin
     id 14 
     name lowerneck
     direction 0.0268157 0.964865 0.261374   
     length 1.65253   
     axis 0 0 0   XYZ
    dof rx ry rz
    limits (-20.0 45.0)
           (-30.0 30.0)
           (-30.0 30.0)
  end
  begin
     id 15 
     name upperneck
     direction 0.00263774 0.939908 -0.341418   
     length 1.72375   
     axis 0 0 0   XYZ
    dof rx ry rz
    limits (-20.0 45.0)
           (-30.0 30.0)
           (-30.0 30.0)
  end
  begin
     id 16
     name head
     direction -0.00526001 0.989001 -0.147818  
     length 1.74878  
     axis 0 0 0   XYZ
    dof rx ry rz
    limits (-20.0 45.0)
           (-30.0 30.0)
           (-30.0 30.0)
  end
  begin
     id 17 
     name lclavicle
     direction 0.881214 0.461162 -0.103884  
     length 3.25108  
     axis 0 0 0   XYZ
    dof ry rz
    limits (-20.0 10.0)
           (0.0 20.0)
  end
  begin
     id 18 
     name lhumerus
     direction 1 -4.4899e-011 3.38092e-027   
     length 4.87408   
     axis 180 -30 -90   XYZ
    dof rx ry rz
    limits (-60.0 90.0)
           (-90.0 90.0)
           (-90.0 90.0)
  end
  begin
     id 19
     name lradius
     direction 1 -4.48931e-011 9.96288e-027   
     length 2.76729   
     axis 180 -30 -90   XYZ
    dof rx
    limits (-10.0 170.0)
  end
  begin
     id 20
     name lwrist
     direction 1 -4.4896e-011 1.50617e-026   
     length 1.38364   
     axis -9.31234e-015 90 90   XYZ
    dof ry
    limits (-180.0 0.0)
 end
  begin
     id 21 
     name lhand
     direction 1 -4.49038e-011 3.01286e-026   
     length 0.98922   
     axis -1.92217e-014 90 90   XYZ
    dof rx rz
    limits (-90.0 90.0)
           (-45.0 45.0)
  end
  begin
     id 22 
     name lfingers
     direction 1 -4.49051e-011 6.02588e-026   
     length 0.797535   
     axis -3.84436e-014 90 90   XYZ
    dof rx
    limits (0.0 90.0)
  end
  begin
     id 23
     name lthumb
     direction 0.707107 -6.34901e-011 0.707107   
     length 1.14511   
     axis -90 45 2.19363e-014   XYZ
    dof rx rz
    limits (-45.0 45.0)
           (-45.0 45.0)
  end
  begin
     id 24 
     name rclavicle
     direction -0.893894 0.441652 -0.0767889   
     length 3.29361  
     axis 0 0 0   XYZ 
    dof ry rz
    limits (-10.0 20.0)
           (-20.0 0.0)
  end
  begin
     id 25 
     name rhumerus
     direction -1 -4.48945e-011 8.0491e-028  
     length 4.71404   
     axis 180 30 90   XYZ
    dof rx ry rz
    limits (-90.0 60.0)
           (-90.0 90.0)
           (-90.0 90.0)
  end
  begin
     id 26 
     name rradius
     direction -1 -4.48986e-011 9.27795e-027   
     length 2.83468   
     axis 180 30 90   XYZ
    dof rx
    limits (-10.0 170.0)
  end
  begin
     id 27 
     name rwrist
     direction -1 -4.49029e-011 1.5064e-026   
     length 1.41734   
     axis -9.31234e-015 -90 -90   XYZ
    dof ry
    limits (-180.0 0.0)
  end
  begin
     id 28
     name rhand
     direction -1 -4.48857e-011 3.01165e-026   
     length 0.868195   
     axis -1.92217e-014 -90 -90   XYZ
    dof rx rz
    limits (-90.0 90.0)
           (-45.0 45.0)
  end
  begin
     id 29
     name rfingers
     direction -1 -4.49048e-011 6.02585e-026   
     length 0.699961   
     axis -3.84436e-014 -90 -90   XYZ
    dof rx
    limits (0.0 90.0)
  end
  begin
     id 30
     name rthumb
     direction -0.707107 -6.34854e-011 0.707107   
     length 1.00501   
     axis -90 -45 -2.19363e-014   XYZ
    dof rx rz
    limits (-45.0 45.0)
           (-45.0 45.0)
  end
:hierarchy
  begin
    root lhipjoint rhipjoint lowerback
    lhipjoint lfemur
    lfemur ltibia
    ltibia lfoot
    lfoot ltoes
    rhipjoint rfemur
    rfemur rtibia
    rtibia rfoot
    rfoot rtoes
    lowerback upperback
    upperback thorax
    thorax lowerneck lclavicle rclavicle
    lowerneck upperneck
    upperneck head
    lclavicle lhumerus
    lhumerus lradius
    lradius lwrist
    lwrist lhand lthumb
    lhand lfingers
    rclavicle rhumerus
    rhumerus rradius
    rradius rwrist
    rwrist rhand rthumb
    rhand rfingers
  end

#!OML:ASF H:\ManfredObstacles\Project 1\Capture day 2\Session 1\male.ASF
:FULLY-SPECIFIED
:DEGREES
122
root 8.34383 15.2273 -16.3795 -170.533 -29.2226 -181.355
lowerback 0.763066 1.25971 -7.51898
upperback 1.80509 1.56684 -2.58045
thorax 1.30268 0.637694 1.54948
lowerneck -31.2508 2.0282 0.945135
upperneck 45.2655 -3.22653 3.27214
head 27.6373 -1.51131 0.317995
rclavicle 1.04362e-013 2.22639e-014
rhumerus -56.9691 2.24386 -88.5833
rradius 73.4028
rwrist 8.75791
rhand -12.619 -6.25806
rfingers 7.12502
rthumb 13.4605 -35.8031
lclavicle 1.04362e-013 2.22639e-014
lhumerus -44.2814 -21.165 99.6208
lradius 91.9158
lwrist -19.3862
lhand -18.0637 11.7407
lfingers 7.12502
lthumb 8.2089 41.5613
rfemur -29.3127 -4.63072 13.5425
rtibia 94.3197
rfoot 5.00453 -19.8247
rtoes -18.7405
lfemur -16.2084 -5.83761 -30.4205
ltibia 42.8832
lfoot -8.75653 23.0649
ltoes -6.71689
123
root 8.20297 15.2603 -16.6707 -170.229 -29.2063 -181.697
lowerback 0.77403 0.854555 -7.80892
upperback 1.73321 1.0203 -2.55757
thorax 1.2624 0.363795 1.73343
lowerneck -31.0279 2.40071 1.19651
upperneck 45.4667 -2.74435 3.0254
head 27.7453 -1.3704 0.252854
rclavicle -1.72943e-014 5.24792e-014
rhumerus -58.2658 2.18809 -88.285
rradius 73.742
rwrist 8.93114
rhand -12.5885 -5.89422
rfingers 7.12502
rthumb 13.4898 -35.4373
lclavicle -1.72943e-014 5.24792e-014
lhumerus -44.0475 -20.9985 99.5929
lradius 92.6389
lwrist -19.5039
lhand -18.169 11.7476
lfingers 7.12502
lthumb 8.10724 41.5721
rfemur -31.9412 -4.10697 13.4775
rtibia 94.5472
rfoot 3.90786 -20.3314
rtoes -19.0266
lfemur -14.4091 -6.19783 -30.7707
ltibia 41.6832
lfoot -7.63434 22.7987
ltoes -7.97615
124
root 8.05967 15.3047 -16.9638 -169.915 -29.2483 -181.962
lowerback 0.753052 0.41167 -8.01761
upperback 1.62749 0.428521 -2.4935
thorax 1.21526 0.071324 1.91476
lowerneck -30.7598 2.79601 1.44377
upperneck 45.6854 -2.21617 2.7538
head 27.8601 -1.22259 0.184111
rclavicle 6.55989e-015 -2.46493e-014
rhumerus -59.5709 2.16272 -87.9453
rradius 74.1306
rwrist 9.16508
rhand -12.6095 -5.50629
rfingers 7.12502
rthumb 13.4696 -35.0507
lclavicle 6.55989e-015 -2.46493e-014
lhumerus -43.8851 -20.9203 99.5424
lradius 93.3735
lwrist -19.6545
lhand -18.2421 11.8132
lfingers 7.12502
lthumb 8.03668 41.6404
rfemur -34.5065 -3.64555 13.5027
rtibia 94.3835
rfoot 3.02466 -20.7998
rtoes -19.3653
lfemur -12.6365 -6.6002 -31.0512
ltibia 40.3599
lfoot -6.3353 22.2373
ltoes -9.07595
125
root 7.91391 15.3618 -17.2611 -169.591 -29.3791 -182.135
lowerback 0.683998 -0.0655157 -8.12949
upperback 1.49267 -0.201695 -2.38876
thorax 1.17401 -0.236782 2.08343
lowerneck -30.4688 3.2072 1.70495
upperneck 45.9303 -1.67496 2.46259
head 28.0108 -1.07439 0.100237
rclavicle 1.37161e-014 -7.95139e-016
rhumerus -60.8791 2.12159 -87.5608
rradius 74.5463
rwrist 9.3688
rhand -12.7038 -5.12205
rfingers 7.12502
rthumb 13.3787 -34.6725
lclavicle 1.37161e-014 -7.95139e-016
lhumerus -43.8001 -20.9489 99.4698
lradius 94.0724
lwrist -19.8165
lhand -18.3182 11.8564
lfingers 7.12502
lthumb 7.96326 41.6864
rfemur -36.9647 -3.25574 13.6346
rtibia 93.8091
rfoot 2.33443 -21.2087
rtoes -19.7887
lfemur -10.9295 -7.00267 -31.2228
ltibia 38.9766
lfoot -4.95261 21.3263
ltoes -9.99677
126
root 7.76668 15.4315 -17.563 -169.272 -29.594 -182.198
lowerback 0.561028 -0.574751 -8.15171
upperback 1.34974 -0.865664 -2.23215
thorax 1.16233 -0.560004 2.25325
lowerneck -30.1809 3.61883 1.95506
upperneck 46.1567 -1.10878 2.16001
head 28.15 -0.92054 0.0174691
rclavicle -1.09332e-014 -2.70347e-014
rhumerus -62.1621 2.08458 -87.1477
rradius 74.9701
rwrist 9.41374
rhand -12.9307 -4.75161
rfingers 7.12502
rthumb 13.16 -34.3163
lclavicle -1.09332e-014 -2.70347e-014
lhumerus -43.7659 -21.0575 99.365
lradius 94.7204
lwrist -19.9981
lhand -18.4138 11.8406
lfingers 7.12502
lthumb 7.87095 41.674
rfemur -39.2753 -2.92643 13.8939
rtibia 92.8153
rfoot 1.88132 -21.5294
rtoes -20.2652
lfemur -9.30945 -7.33355 -31.2498
ltibia 37.5562
lfoot -3.49696 20.0365
ltoes -10.8278
